# xmcd CD database file
#
# Track frame offsets:
#	150
#	21682
#	40760
#
# Disc length: 830 seconds
#
# Revision: 0
# Processed by: cddbd v1.5.1PL0 Copyright (c) Steve Scherf et al.
# Submitted via: CDex 1.51
#
DISCID=21033c03
DTITLE=canna - 風の向くまま
DYEAR=1999
DGENRE=JPop
TTITLE0=風の向くまま
TTITLE1=粉雪
TTITLE2=風の向くまま（オリジナル・カラオケ）
EXTD=YEAR: 1999
EXTT0=
EXTT1=
EXTT2=
PLAYORDER=
